<svg width="481" height="184" viewBox="0 0 481 184" fill="none" xmlns="http://www.w3.org/2000/svg">
<path d="M480.574 60.9499H452.981V33.3573H480.574V60.9499Z" fill="#F7F7F7"/>
<path d="M448.382 94.2908H420.79V0.015564H448.382V94.2908Z" fill="#F7F7F7"/>
<path d="M301.381 5.34058e-05V27.5926H325.38C326.451 27.5834 329.781 27.4963 329.732 27.5257C323.527 31.2602 313.139 43.2914 308.546 55.1851H301.381V82.7786H411.752V55.1851L340.812 55.3501C350.939 39.0087 367.223 28.0344 391.997 27.5926H394.52C398.849 27.6696 403.074 28.1683 407.153 29.0583L407.152 27.5926L407.153 5.34058e-05H301.381Z" fill="#F7F7F7"/>
<path d="M420.789 156.407H351.808C339.114 156.407 328.824 146.122 328.814 133.432L420.789 133.365V156.407ZM301.22 105.772V133.451C301.241 161.372 323.882 184 351.808 184H420.789H448.382V156.407V133.365V105.82V105.772H301.22Z" fill="#F7F7F7"/>
<path d="M282.826 94.2908H255.233V0.015564H282.826V94.2908Z" fill="#F7F7F7"/>
<path d="M241.436 7.62939e-06H135.664V27.5925H160.658C161.534 27.5834 163.64 27.5495 163.626 27.5605C149.082 38.7227 137.763 61.6558 135.664 82.7666L163.596 82.7703C168.062 51.5734 195.208 27.5925 227.64 27.5925C232.375 27.5925 236.992 28.104 241.436 29.0739L241.436 27.5925L241.436 7.62939e-06Z" fill="#F7F7F7"/>
<path d="M273.164 137.517C261.514 149.168 245.418 156.375 227.639 156.375C192.081 156.375 163.255 127.549 163.255 91.9919C163.255 90.836 163.287 89.6874 163.346 88.5471L135.726 88.5444C135.684 89.6884 135.663 90.8379 135.663 91.9919C135.663 142.788 176.842 183.967 227.639 183.967C253.037 183.967 276.031 173.672 292.676 157.028L273.164 137.517Z" fill="#F7F7F7"/>
<path d="M105.772 73.6292H0V50.6355H105.772V73.6292Z" fill="#A50809"/>
<path d="M2.2998 133.414C2.2998 105.475 24.9478 82.8264 52.8869 82.8264C80.825 82.8264 103.473 105.475 103.473 133.414H2.2998Z" fill="#A50809"/>
<path d="M228.342 82.5924H200.75V54.9999H228.342V82.5924Z" fill="#F7F7F7"/>
</svg>
